<svg width="24" height="31" viewBox="0 0 24 31" fill="none" xmlns="http://www.w3.org/2000/svg">
<path id="Vector" d="M7.8 18.9738H22.2C22.53 18.9738 22.8 18.5469 22.8 18.0251V2.84606C22.8 2.32429 22.53 1.89738 22.2 1.89738H16.8V9.48688L15 7.5895L13.2 9.48688V1.89738H7.8C7.47 1.89738 7.2 2.32429 7.2 2.84606V18.0251C7.2 18.5469 7.47 18.9738 7.8 18.9738ZM23.4 22.7685H4.8V0.948688C4.8 0.42691 4.53 0 4.2 0H0.6C0.27 0 0 0.42691 0 0.948688V2.84606C0 3.36784 0.27 3.79475 0.6 3.79475H2.4V25.6146C2.4 26.1364 2.67 26.5633 3 26.5633H6.10875C6.04125 26.8597 6 27.1799 6 27.512C6 29.0832 6.80625 30.358 7.8 30.358C8.79375 30.358 9.6 29.0832 9.6 27.512C9.6 27.1799 9.555 26.8597 9.49125 26.5633H16.9125C16.845 26.8597 16.8037 27.1799 16.8037 27.512C16.8037 29.0832 17.61 30.358 18.6038 30.358C19.5975 30.358 20.4037 29.0832 20.4037 27.512C20.4037 27.1799 20.3587 26.8597 20.295 26.5633H23.4C23.73 26.5633 24 26.1364 24 25.6146V23.7172C24 23.1954 23.73 22.7685 23.4 22.7685Z" fill="#339657"/>
</svg>
