<svg width="16" height="33" viewBox="0 0 16 33" fill="none" xmlns="http://www.w3.org/2000/svg">
<path id="Vector" d="M13.2812 0H2.34375C1.0498 0 0 1.38565 0 3.09355V29.9043C0 31.6122 1.0498 32.9978 2.34375 32.9978H13.2812C14.5752 32.9978 15.625 31.6122 15.625 29.9043V3.09355C15.625 1.38565 14.5752 0 13.2812 0ZM7.8125 30.9355C6.94824 30.9355 6.25 30.0139 6.25 28.8731C6.25 27.7324 6.94824 26.8107 7.8125 26.8107C8.67676 26.8107 9.375 27.7324 9.375 28.8731C9.375 30.0139 8.67676 30.9355 7.8125 30.9355ZM13.2812 23.975C13.2812 24.4004 13.0176 24.7484 12.6953 24.7484H2.92969C2.60742 24.7484 2.34375 24.4004 2.34375 23.975V3.86694C2.34375 3.44157 2.60742 3.09355 2.92969 3.09355H12.6953C13.0176 3.09355 13.2812 3.44157 13.2812 3.86694V23.975Z" fill="#339657"/>
</svg>
