<svg width="36" height="20" viewBox="0 0 36 20" fill="none" xmlns="http://www.w3.org/2000/svg">
<path id="Vector" d="M19.8 11.6667H18.9V7.08333C18.9 6.85312 18.6986 6.66667 18.45 6.66667H17.6861C17.4195 6.66667 17.1591 6.73958 16.9374 6.87656L16.0751 7.40885C16.0259 7.43917 15.9837 7.47817 15.9508 7.52361C15.9179 7.56905 15.895 7.62005 15.8834 7.6737C15.8718 7.72734 15.8718 7.78257 15.8832 7.83624C15.8947 7.8899 15.9175 7.94095 15.9502 7.98646L16.4497 8.67969C16.4825 8.72522 16.5246 8.76434 16.5737 8.7948C16.6228 8.82526 16.6778 8.84646 16.7358 8.8572C16.7937 8.86794 16.8534 8.868 16.9113 8.85738C16.9693 8.84676 17.0244 8.82567 17.0736 8.79531L17.1 8.77917V11.6667H16.2C15.9514 11.6667 15.75 11.8531 15.75 12.0833V12.9167C15.75 13.1469 15.9514 13.3333 16.2 13.3333H19.8C20.0486 13.3333 20.25 13.1469 20.25 12.9167V12.0833C20.25 11.8531 20.0486 11.6667 19.8 11.6667ZM34.2 0H1.8C0.806062 0 0 0.746354 0 1.66667V18.3333C0 19.2536 0.806062 20 1.8 20H34.2C35.1939 20 36 19.2536 36 18.3333V1.66667C36 0.746354 35.1939 0 34.2 0ZM2.7 17.5V14.1667C4.68844 14.1667 6.3 15.6589 6.3 17.5H2.7ZM2.7 5.83333V2.5H6.3C6.3 4.34115 4.68844 5.83333 2.7 5.83333ZM18 15.8333C15.0176 15.8333 12.6 13.2214 12.6 10C12.6 6.77812 15.0176 4.16667 18 4.16667C20.9824 4.16667 23.4 6.77812 23.4 10C23.4 13.2224 20.9812 15.8333 18 15.8333ZM33.3 17.5H29.7C29.7 15.6589 31.3116 14.1667 33.3 14.1667V17.5ZM33.3 5.83333C31.3116 5.83333 29.7 4.34115 29.7 2.5H33.3V5.83333Z" fill="white"/>
</svg>
