<svg width="25" height="27" viewBox="0 0 25 27" fill="none" xmlns="http://www.w3.org/2000/svg">
<path id="Vector" d="M5.00059 4.94968C6.03574 4.94968 6.87559 3.84116 6.87559 2.47484C6.87559 1.10852 6.03574 0 5.00059 0C3.96543 0 3.12559 1.10852 3.12559 2.47484C3.12559 3.84116 3.96543 4.94968 5.00059 4.94968ZM20.0006 4.94968C21.0357 4.94968 21.8756 3.84116 21.8756 2.47484C21.8756 1.10852 21.0357 0 20.0006 0C18.9654 0 18.1256 1.10852 18.1256 2.47484C18.1256 3.84116 18.9654 4.94968 20.0006 4.94968ZM24.9107 24.1348L23.192 18.4633L21.5865 20.8557L21.5084 21.794L22.5904 25.3619C22.7857 26.0064 23.2545 26.3983 23.7506 26.3983C23.9068 26.3983 24.0631 26.3622 24.2154 26.2797C24.8561 25.9394 25.1686 24.9804 24.9107 24.1348ZM23.5748 13.3177L22.8521 9.18268C22.6725 8.1515 22.1256 7.28531 21.3873 6.86768C20.6646 6.4552 19.8639 6.52223 19.1959 7.03782C18.3092 7.72871 17.6451 8.81661 17.317 10.1004L16.8756 11.8483L16.2506 12.3742V7.42452C16.2506 6.9708 15.9693 6.59957 15.6256 6.59957H9.37559C9.03184 6.59957 8.75059 6.9708 8.75059 7.42452V12.3742L8.12168 11.8483L7.68027 10.1004C7.35605 8.81146 6.68809 7.72871 5.80137 7.03782C5.12949 6.52223 4.33262 6.4552 3.60996 6.86768C2.87168 7.28531 2.3248 8.1515 2.14512 9.18268L1.42637 13.3177C1.24668 14.3489 1.45371 15.442 1.98887 16.2411L4.61387 20.1545L5.0084 24.9288C5.07871 25.7693 5.61777 26.3983 6.25059 26.3983C6.29746 26.3983 6.34043 26.3931 6.3873 26.388C7.0748 26.29 7.56699 25.4754 7.49277 24.5679L7.09824 19.7832C7.03965 19.113 6.82871 18.4891 6.48887 17.9787L4.79746 15.4523L5.48496 11.8277L5.75059 12.8795C5.91074 13.524 6.21543 14.086 6.70762 14.5603L8.70371 16.236C8.8834 16.3855 9.17637 16.4731 9.37559 16.4938H15.6256C15.8248 16.4731 16.1178 16.3855 16.2975 16.236L18.2936 14.5603C18.7857 14.086 19.0904 13.5291 19.2506 12.8795L19.5162 11.8277L20.2037 15.4523L18.5123 17.9787C18.1725 18.4891 17.9615 19.113 17.9029 19.7832L17.5084 24.5679C17.4342 25.4754 17.9303 26.29 18.6139 26.388C18.6607 26.3931 18.7037 26.3983 18.7506 26.3983C19.3795 26.3983 19.9225 25.7744 19.9928 24.9288L20.3873 20.1545L23.0123 16.2411C23.5436 15.442 23.7545 14.3489 23.5748 13.3177ZM1.80918 18.4633L0.0904288 24.1348C-0.167384 24.9804 0.145116 25.9394 0.785741 26.2797C1.44199 26.62 2.15684 26.192 2.41074 25.3619L3.49277 21.794L3.41465 20.8557L1.80918 18.4633Z" fill="#339657"/>
</svg>
