<svg width="25" height="35" viewBox="0 0 25 35" fill="none" xmlns="http://www.w3.org/2000/svg">
<path id="Vector" d="M5.07817 15.199H1.17192C0.524711 15.199 4.99636e-05 15.928 4.99636e-05 16.8274V33.112C4.99636e-05 34.0114 0.524711 34.7405 1.17192 34.7405H5.07817C5.72539 34.7405 6.25005 34.0114 6.25005 33.112V16.8274C6.25005 15.928 5.72539 15.199 5.07817 15.199ZM3.12505 32.0264C2.47784 32.0264 1.95317 31.2973 1.95317 30.3979C1.95317 29.4985 2.47784 28.7695 3.12505 28.7695C3.77226 28.7695 4.29692 29.4985 4.29692 30.3979C4.29692 31.2973 3.77226 32.0264 3.12505 32.0264ZM18.75 5.52672C18.75 8.40475 17.482 10.0191 17.1252 11.942H22.0921C23.7228 11.942 24.9924 13.8247 25 15.8841C25.0041 17.1013 24.6315 18.4116 24.0508 19.2223L24.0455 19.2297C24.5257 20.8132 24.4477 23.032 23.591 24.6219C24.0148 26.3789 23.5876 28.5373 22.7911 29.6944C23.0009 30.8884 22.9006 31.9047 22.4909 32.7228C21.4943 34.7125 19.0243 34.7405 16.9355 34.7405L16.7966 34.7404C14.4389 34.7393 12.5092 33.5463 10.9587 32.5878C10.1796 32.1061 9.16084 31.5098 8.38789 31.4901C8.06856 31.4819 7.81255 31.1198 7.81255 30.676V16.1712C7.81255 15.954 7.87515 15.7456 7.98628 15.593C9.92055 12.937 10.7523 10.125 12.3377 7.91812C13.0605 6.91173 13.3234 5.39156 13.5776 3.92147C13.7947 2.66613 14.2489 0 15.2344 0C16.4063 0 18.75 0.54282 18.75 5.52672Z" fill="#339657"/>
</svg>
